<mxfile host="app.diagrams.net" modified="2023-12-05T19:08:58.879Z" agent="Mozilla/5.0 (Windows NT 10.0; Win64; x64) AppleWebKit/537.36 (KHTML, like Gecko) Chrome/119.0.0.0 Safari/537.36" etag="2Blw5EGE0ajZ6x5kliq4" version="22.1.5" type="github">
  <diagram name="Page-1" id="5f0bae14-7c28-e335-631c-24af17079c00">
    <mxGraphModel dx="734" dy="472" grid="1" gridSize="10" guides="1" tooltips="1" connect="1" arrows="1" fold="1" page="1" pageScale="1" pageWidth="1100" pageHeight="850" background="none" math="0" shadow="0">
      <root>
        <mxCell id="0" />
        <mxCell id="1" parent="0" />
        <mxCell id="TXd3JGgsLjjh1zMueGm6-4" style="edgeStyle=orthogonalEdgeStyle;rounded=0;orthogonalLoop=1;jettySize=auto;html=1;" edge="1" parent="1" source="TXd3JGgsLjjh1zMueGm6-1" target="TXd3JGgsLjjh1zMueGm6-3">
          <mxGeometry relative="1" as="geometry" />
        </mxCell>
        <mxCell id="TXd3JGgsLjjh1zMueGm6-6" value="Loan created" style="edgeLabel;html=1;align=center;verticalAlign=middle;resizable=0;points=[];" vertex="1" connectable="0" parent="TXd3JGgsLjjh1zMueGm6-4">
          <mxGeometry x="-0.3114" y="7" relative="1" as="geometry">
            <mxPoint x="21" as="offset" />
          </mxGeometry>
        </mxCell>
        <mxCell id="TXd3JGgsLjjh1zMueGm6-1" value="«producer»&lt;br&gt;&lt;b&gt;loans service&lt;/b&gt;" style="html=1;whiteSpace=wrap;" vertex="1" parent="1">
          <mxGeometry x="30" y="230" width="110" height="50" as="geometry" />
        </mxCell>
        <mxCell id="TXd3JGgsLjjh1zMueGm6-5" style="edgeStyle=orthogonalEdgeStyle;rounded=0;orthogonalLoop=1;jettySize=auto;html=1;exitX=0;exitY=0.5;exitDx=0;exitDy=0;" edge="1" parent="1" source="TXd3JGgsLjjh1zMueGm6-2" target="TXd3JGgsLjjh1zMueGm6-3">
          <mxGeometry relative="1" as="geometry" />
        </mxCell>
        <mxCell id="TXd3JGgsLjjh1zMueGm6-7" value="&amp;lt;&amp;lt;consume&amp;gt;&amp;gt;" style="edgeLabel;html=1;align=center;verticalAlign=middle;resizable=0;points=[];" vertex="1" connectable="0" parent="TXd3JGgsLjjh1zMueGm6-5">
          <mxGeometry x="-0.0515" y="-3" relative="1" as="geometry">
            <mxPoint as="offset" />
          </mxGeometry>
        </mxCell>
        <mxCell id="TXd3JGgsLjjh1zMueGm6-10" value="" style="edgeStyle=orthogonalEdgeStyle;rounded=0;orthogonalLoop=1;jettySize=auto;html=1;" edge="1" parent="1" source="TXd3JGgsLjjh1zMueGm6-2" target="TXd3JGgsLjjh1zMueGm6-9">
          <mxGeometry relative="1" as="geometry">
            <Array as="points">
              <mxPoint x="670" y="125" />
              <mxPoint x="670" y="125" />
            </Array>
          </mxGeometry>
        </mxCell>
        <mxCell id="TXd3JGgsLjjh1zMueGm6-11" value="success" style="edgeLabel;html=1;align=center;verticalAlign=middle;resizable=0;points=[];" vertex="1" connectable="0" parent="TXd3JGgsLjjh1zMueGm6-10">
          <mxGeometry x="-0.0325" y="1" relative="1" as="geometry">
            <mxPoint as="offset" />
          </mxGeometry>
        </mxCell>
        <mxCell id="TXd3JGgsLjjh1zMueGm6-19" style="edgeStyle=orthogonalEdgeStyle;rounded=0;orthogonalLoop=1;jettySize=auto;html=1;entryX=1;entryY=0.5;entryDx=0;entryDy=0;" edge="1" parent="1" source="TXd3JGgsLjjh1zMueGm6-2" target="TXd3JGgsLjjh1zMueGm6-8">
          <mxGeometry relative="1" as="geometry">
            <Array as="points">
              <mxPoint x="490" y="320" />
              <mxPoint x="490" y="320" />
            </Array>
          </mxGeometry>
        </mxCell>
        <mxCell id="TXd3JGgsLjjh1zMueGm6-20" value="failure" style="edgeLabel;html=1;align=center;verticalAlign=middle;resizable=0;points=[];" vertex="1" connectable="0" parent="TXd3JGgsLjjh1zMueGm6-19">
          <mxGeometry x="-0.1799" y="-2" relative="1" as="geometry">
            <mxPoint as="offset" />
          </mxGeometry>
        </mxCell>
        <mxCell id="TXd3JGgsLjjh1zMueGm6-2" value="«consumer»&lt;br style=&quot;border-color: var(--border-color);&quot;&gt;&lt;b&gt;notifications service&lt;/b&gt;" style="html=1;whiteSpace=wrap;" vertex="1" parent="1">
          <mxGeometry x="533" y="150" width="130" height="210" as="geometry" />
        </mxCell>
        <mxCell id="TXd3JGgsLjjh1zMueGm6-3" value="«queue»&lt;br&gt;&lt;b&gt;notifications&lt;br&gt;&lt;br&gt;&lt;/b&gt;" style="html=1;whiteSpace=wrap;" vertex="1" parent="1">
          <mxGeometry x="330" y="230" width="110" height="50" as="geometry" />
        </mxCell>
        <mxCell id="TXd3JGgsLjjh1zMueGm6-8" value="«queue»&lt;br&gt;&lt;b&gt;recovery&lt;br&gt;&lt;br&gt;&lt;/b&gt;" style="html=1;whiteSpace=wrap;" vertex="1" parent="1">
          <mxGeometry x="330" y="295" width="110" height="50" as="geometry" />
        </mxCell>
        <mxCell id="TXd3JGgsLjjh1zMueGm6-9" value="" style="ellipse;html=1;shape=endState;fillColor=#000000;strokeColor=#ff0000;" vertex="1" parent="1">
          <mxGeometry x="710" y="110" width="30" height="30" as="geometry" />
        </mxCell>
        <mxCell id="TXd3JGgsLjjh1zMueGm6-12" value="Retry logic" style="ellipse;shape=umlControl;whiteSpace=wrap;html=1;" vertex="1" parent="1">
          <mxGeometry x="563" y="278" width="70" height="80" as="geometry" />
        </mxCell>
      </root>
    </mxGraphModel>
  </diagram>
</mxfile>
